<?xml version="1.0" standalone="no"?>
<!DOCTYPE svg PUBLIC "-//W3C//DTD SVG 20010904//EN"
 "http://www.w3.org/TR/2001/REC-SVG-20010904/DTD/svg10.dtd">
<svg version="1.0" xmlns="http://www.w3.org/2000/svg"
 width="30.000000pt" height="30.000000pt" viewBox="0 0 30.000000 30.000000"
 preserveAspectRatio="xMidYMid meet">

<g transform="translate(0.000000,30.000000) scale(0.100000,-0.100000)"
fill="#000000" stroke="none">
<path d="M93 256 c-84 -38 -82 -176 2 -212 46 -19 95 -18 95 1 0 11 -11 15
-38 15 -21 0 -47 7 -59 15 -43 30 -38 131 8 155 10 6 36 10 58 10 49 0 84 -37
79 -84 -5 -46 -28 -45 -28 2 0 39 -1 39 -42 45 -51 7 -78 -12 -78 -54 0 -46
48 -77 77 -48 8 8 13 8 17 0 13 -20 55 -12 72 14 22 33 13 91 -20 123 -29 30
-97 38 -143 18z m72 -106 c0 -13 -6 -25 -12 -27 -16 -6 -27 21 -19 43 9 23 31
11 31 -16z"/>
</g>
</svg>
